v 0.476343 1.70599 -0.402043
vn 0.113858 0.214407 0.970086
vt 0.916884 0.852993
v -0.059524 1.90221 -0.382519
vn 0.0809546 0.204268 0.975562
vt 0.381017 0.951106
v -0.416529 1.15009 -0.212363
vn -0.0641643 0.157819 0.985381
vt 0.0240112 0.575046
v -0.440541 0 -0.0817464
vn -0.175421 0.11471 0.977788
vt 0 0
v 0.01461 0 -8.99083e-005
vn -0.0156175 0.172212 0.984936
vt 0.455151 0
v 0.559459 0.625995 -0.173101
vn 0.0973958 0.20698 0.973485
vt 1 0.312997
f 3/3/3 4/4/4 5/5/5
f 6/6/6 1/1/1 2/2/2
f 2/2/2 3/3/3 5/5/5
f 2/2/2 5/5/5 6/6/6
