v -0.4748 0.026 -0.9625
vn -0.325393 0.935879 -0.135097
vt 0.1592 0.6443
v -0.4527 0.0314 -0.8506
vn -0.335417 0.941546 0.0314015
vt 0.1751 0.5668
v -0.4177 0.0256 -0.5107
vn -0.327909 0.915625 0.232606
vt 0.202 0.3289
v -0.3477 -0.0194 -1.3318
vn -0.334901 0.914302 -0.227801
vt 0.2553 0.8988
v -0.2742 0 -0.2078
vn -0.284294 0.918482 0.274895
vt 0.3098 0.1349
v -0.1251 0.033 -1.5
vn -0.387708 0.905017 -0.175003
vt 0.4136 1.0028
v -0.0905 0.0994 -1.2332
vn -0.350613 0.916835 -0.191007
vt 0.437 0.8213
v -0.0077 0.1684 -0.4948
vn -0.0031999 0.969671 0.244393
vt 0.4945 0.3348
v -0.0077 0.1809 -0.6544
vn 0.180305 0.981326 0.0670018
vt 0.4945 0.4345
v 0 0 0
vn -9.99973e-005 0.946675 0.322191
vt 0.5 0
v 0 0.0958 -1.4524
vn -0.167195 0.96847 -0.184694
vt 0.5009 0.9643
v 0.0108 0.1745 -1.0396
vn -0.185009 0.966646 -0.177108
vt 0.5082 0.6885
v 0.0108 0.1975 -0.8799
vn -0.159593 0.987159 0.00679972
vt 0.5079 0.5832
v 0.4104 -0.0008 -1.3381
vn 0.273993 0.943377 -0.186995
vt 0.7879 0.8981
v 0.5325 -0.0242 -0.3398
vn 0.298705 0.943616 0.142702
vt 0.8777 0.2026
v 0.5349 0.008 -1.097
vn 0.354215 0.93254 0.070003
vt 0.8797 0.7377
f 11/11/11 12/12/12 14/14/14
f 7/7/7 11/11/11 6/6/6
f 13/13/13 1/1/1 2/2/2
f 12/12/12 1/1/1 13/13/13
f 7/7/7 12/12/12 11/11/11
f 7/7/7 4/4/4 1/1/1
f 7/7/7 1/1/1 12/12/12
f 5/5/5 8/8/8 3/3/3
f 16/16/16 13/13/13 9/9/9
f 13/13/13 2/2/2 9/9/9
f 15/15/15 16/16/16 9/9/9
f 15/15/15 9/9/9 8/8/8
f 15/15/15 8/8/8 10/10/10
f 10/10/10 8/8/8 5/5/5
