# This file uses centimeters as units for non-parametric coordinates.

mtllib CactusSpines_RT_Top.mtl
g default
v -1.581840 0.004134 0.009643
v 1.275230 0.004134 0.009643
v -1.581840 0.004134 2.103124
v 1.275230 0.004134 2.103124
vt 0.015270 0.723780
vt 0.951612 0.723780
vt 0.015270 0.991435
vt 0.951612 0.991435
vn 0.000000 -1.000000 0.000000
vn 0.000000 -1.000000 0.000000
vn 0.000000 -1.000000 0.000000
vn 0.000000 -1.000000 0.000000
s off
g pPlane1
usemtl CactusSpines_RT_Top:initialShadingGroup
f 1/1/1 2/2/2 4/4/3 3/3/4
