# This file uses centimeters as units for non-parametric coordinates.

mtllib CactusSpines.mtl
g default
v -0.078533 0.025460 -0.002588
v 0.078704 0.025460 -0.002588
v -0.078533 0.932395 0.609792
v 0.078704 0.932395 0.609792
vt 0.556358 0.500338
vt 0.502343 0.443070
vt 0.954925 0.124409
vt 0.900910 0.067141
vn 0.000000 -0.559597 0.828765
vn 0.000000 -0.559597 0.828765
vn 0.000000 -0.559597 0.828765
vn 0.000000 -0.559597 0.828765
s off
g pPlane1
usemtl CactusSpines_RT_Top:initialShadingGroup
f 1/1/1 2/2/2 4/4/3 3/3/4
g default
v -0.007683 -0.082415 -0.001376
v -0.007152 0.082175 -0.001376
v -1.001603 -0.079207 0.568091
v -1.001072 0.085384 0.568091
vt 0.449499 0.499715
vt 0.504500 0.558026
vt 0.043672 0.882505
vt 0.098673 0.940816
vn 0.497129 -0.001605 0.867675
vn 0.497129 -0.001605 0.867675
vn 0.497129 -0.001605 0.867675
vn 0.497129 -0.001605 0.867675
s off
g pasted__pPlane1 group
usemtl CactusSpines_RT_Top:initialShadingGroup
f 5/5/5 6/6/6 8/8/7 7/7/8
g default
v -0.079296 -0.969592 0.565234
v 0.079467 -0.969592 0.565234
v -0.079296 -0.019583 0.000979
v 0.079467 -0.019583 0.000979
vt 0.085462 0.133249
vt 0.139091 0.082948
vt 0.449129 0.492540
vt 0.502758 0.442239
vn 0.000000 0.510664 0.859780
vn 0.000000 0.510664 0.859780
vn 0.000000 0.510664 0.859780
vn 0.000000 0.510664 0.859780
s off
g pasted__pasted__pPlane1 pasted__group group1
usemtl CactusSpines_RT_Top:initialShadingGroup
f 9/9/9 10/10/10 12/12/11 11/11/12
g default
v 1.012466 -0.077609 0.409850
v 1.012967 0.077364 0.409850
v 0.017133 -0.074396 -0.005624
v 0.017633 0.080577 -0.005624
vt 0.928080 0.880922
vt 0.873971 0.932188
vt 0.571282 0.504338
vt 0.517173 0.555605
vn -0.385205 0.001244 0.922830
vn -0.385205 0.001244 0.922830
vn -0.385205 0.001244 0.922830
vn -0.385205 0.001244 0.922830
s off
g pasted__pasted__pPlane1 pasted__group group2
usemtl CactusSpines_RT_Top:initialShadingGroup
f 13/13/13 14/14/14 16/16/15 15/15/16
