# This file uses centimeters as units for non-parametric coordinates.

mtllib Flower_1_RT.mtl
g default
v -2.488700 1.136680 -0.477632
v -1.863820 0.909438 -1.656640
v -1.863820 0.910305 1.739820
v -1.716680 0.818170 -1.508090
v -1.692100 0.816545 1.603290
v -0.933936 0.536035 0.104885
v -0.064668 0.555237 -0.705819
v -0.064668 0.527517 0.915590
v -0.064668 0.803014 0.104885
v -0.050721 1.250680 -2.505760
v -0.045653 -0.128173 0.042077
v 0.018983 1.211210 2.494240
v 0.804581 0.527164 0.104885
v 1.600860 0.826573 -1.530760
v 1.625120 0.798882 1.555780
v 1.733740 0.888541 1.572690
v 1.778010 0.948024 -1.656640
v 2.272350 1.096580 0.082700
vt 1.000000 1.000000
vt 0.500000 1.000000
vt 0.749787 0.492618
vt 0.500000 0.000000
vt 1.000000 0.000000
vt 0.263644 0.481318
vt 0.292690 0.601595
vt 0.165278 0.595961
vt 0.215100 1.010000
vt 0.181028 0.356936
vt 0.003370 0.472500
vt 0.305261 0.361328
vt 0.280186 -0.004850
vt 0.489393 0.500000
vt 0.424600 0.890500
vt 0.055359 0.089479
vt 0.430690 0.155493
vt 0.043187 0.910960
vn -0.278099 -0.910200 -0.306914
vn 0.264573 -0.914791 -0.305219
vn -0.001100 -0.999962 -0.008685
vn 0.264573 -0.914791 -0.305219
vn 0.281920 -0.916889 0.282552
vn -0.001100 -0.999962 -0.008685
vn -0.278099 -0.910200 -0.306914
vn -0.001100 -0.999962 -0.008685
vn -0.271095 -0.920825 0.280337
vn -0.001100 -0.999962 -0.008685
vn 0.281920 -0.916889 0.282552
vn -0.271095 -0.920825 0.280337
vn 0.000000 1.000000 0.000000
vn 0.000000 0.984537 0.175174
vn 0.178296 0.983977 -0.000107
vn 0.000000 0.984537 0.175174
vn 0.206145 0.949209 0.237712
vn 0.178296 0.983977 -0.000107
vn -0.000698 0.979930 -0.199340
vn 0.000000 1.000000 0.000000
vn 0.178296 0.983977 -0.000107
vn -0.000698 0.979930 -0.199340
vn 0.178296 0.983977 -0.000107
vn 0.231282 0.945193 -0.230474
vn -0.170993 0.985272 -0.000214
vn 0.000000 1.000000 0.000000
vn -0.000698 0.979930 -0.199340
vn -0.226198 0.945930 -0.232488
vn -0.170993 0.985272 -0.000214
vn -0.000698 0.979930 -0.199340
vn -0.170993 0.985272 -0.000214
vn 0.000000 0.984537 0.175174
vn 0.000000 1.000000 0.000000
vn -0.206179 0.950800 0.231234
vn 0.000000 0.984537 0.175174
vn -0.170993 0.985272 -0.000214
vn 0.000000 0.798647 0.601800
vn 0.206145 0.949209 0.237712
vn 0.000000 0.984537 0.175174
vn 0.004382 0.776714 -0.629838
vn -0.000698 0.979930 -0.199340
vn 0.231282 0.945193 -0.230474
vn -0.226198 0.945930 -0.232488
vn -0.000698 0.979930 -0.199340
vn 0.004382 0.776714 -0.629838
vn -0.584312 0.811529 0.000965
vn -0.170993 0.985272 -0.000214
vn -0.226198 0.945930 -0.232488
vn -0.584312 0.811529 0.000965
vn -0.206179 0.950800 0.231234
vn -0.170993 0.985272 -0.000214
vn 0.178296 0.983977 -0.000107
vn 0.593290 0.804989 -0.000214
vn 0.231282 0.945193 -0.230474
vn 0.206145 0.949209 0.237712
vn 0.593290 0.804989 -0.000214
vn 0.178296 0.983977 -0.000107
vn -0.206179 0.950800 0.231234
vn 0.000000 0.798647 0.601800
vn 0.000000 0.984537 0.175174
s off
g Flower_1_RT:Mesh
usemtl initialShadingGroup
f 4/1/1 14/2/2 11/3/3
f 14/2/4 15/4/5 11/3/6
f 4/1/7 11/3/8 5/5/9
f 11/3/10 15/4/11 5/5/12
f 9/6/13 7/7/14 6/8/15
f 7/7/16 2/9/17 6/8/18
f 8/10/19 9/6/20 6/8/21
f 8/10/22 6/8/23 3/11/24
f 13/12/25 9/6/26 8/10/27
f 16/13/28 13/12/29 8/10/30
f 13/12/31 7/7/32 9/6/33
f 17/14/34 7/7/35 13/12/36
f 10/15/37 2/9/38 7/7/39
f 12/16/40 8/10/41 3/11/42
f 16/13/43 8/10/44 12/16/45
f 18/17/46 13/12/47 16/13/48
f 18/17/49 17/14/50 13/12/51
f 6/8/52 1/18/53 3/11/54
f 2/9/55 1/18/56 6/8/57
f 17/14/58 10/15/59 7/7/60
