# 3ds Max Wavefront OBJ Exporter v0.97b - (c)2007 guruware
# File Created: 18.06.2014 21:47:53

#
# object Broadleaves_Hero
#

v  20.0000 0.0000 0.0000
v  -20.0000 0.0000 0.0000
v  0.0000 -20.0000 5.2110
v  20.0000 -40.0000 0.0000
v  -20.0000 -40.0000 0.0000
# 5 vertices

vn 0.1281 0.1281 0.9834
vn -0.1281 0.1281 0.9834
vn 0.0000 0.0000 1.0000
vn 0.1281 -0.1281 0.9834
vn -0.1281 -0.1281 0.9834
# 5 vertex normals

vt 0.99 0.01 0
vt 0.01 0.01 0
vt 0.5 0.5 0
vt 0.99 0.99 0
vt 0.01 0.99 0
# 5 texture coords

g Broadleaves_Hero
f 1/1/1 2/2/2 3/3/3 
f 4/4/4 1/1/1 3/3/3 
f 2/2/2 5/5/5 3/3/3 
f 5/5/5 4/4/4 3/3/3 
# 4 faces

