# This file uses centimeters as units for non-parametric coordinates.

mtllib Kousaleaf1.mtl
g default
v -0.528982 -1.619148 -0.362385
v -0.768319 -0.938532 -0.401635
v -0.788838 -0.432813 -0.001393
v 0.035129 -1.909450 -0.616695
v 0.030939 -0.883673 -0.534984
v 0.004262 0.003705 -0.014637
v 0.625116 -1.619148 -0.303216
v 0.812369 -0.938532 -0.320595
v 0.791850 -0.432813 0.079646
vt 0.253235 0.766972
vt 0.023373 0.492563
vt 0.500000 0.490519
vt 0.501887 0.980905
vt 0.084479 0.053172
vt 0.498113 0.000133
vt 0.952630 0.488475
vt 0.771537 0.753885
vt 0.911747 0.151073
vn -0.275936 -0.015465 -0.961052
vn -0.268137 0.268121 -0.925318
vn 0.045434 0.285214 -0.957386
vn 0.044192 -0.009958 -0.998973
vn -0.268137 0.268121 -0.925318
vn -0.238415 0.529786 -0.813932
vn 0.042700 0.551823 -0.832867
vn 0.045434 0.285214 -0.957386
vn 0.044192 -0.009958 -0.998973
vn 0.045434 0.285214 -0.957386
vn 0.353950 0.273932 -0.894249
vn 0.359725 -0.003415 -0.933052
vn 0.045434 0.285214 -0.957386
vn 0.042700 0.551823 -0.832867
vn 0.320404 0.529786 -0.785282
vn 0.353950 0.273932 -0.894249
s off
g Kousaleaf1:pPlane1
usemtl initialShadingGroup
f 1/1/1 2/2/2 5/3/3 4/4/4
f 2/2/5 3/5/6 6/6/7 5/3/8
f 4/4/9 5/3/10 8/7/11 7/8/12
f 5/3/13 6/6/14 9/9/15 8/7/16
